<mxfile host="app.diagrams.net" modified="2022-11-02T06:19:55.689Z" agent="5.0 (Macintosh; Intel Mac OS X 10_14_2) AppleWebKit/537.36 (KHTML, like Gecko) Chrome/106.0.0.0 Safari/537.36" etag="O3-lbdCzmPkTxLoUCg6-" version="20.5.1" type="github">
  <diagram id="W5TikHNiagLAr1A7BPvL" name="Страница 1">
    <mxGraphModel dx="1837" dy="1433" grid="1" gridSize="10" guides="1" tooltips="1" connect="1" arrows="1" fold="1" page="1" pageScale="1" pageWidth="1169" pageHeight="1654" math="0" shadow="0">
      <root>
        <mxCell id="0" />
        <mxCell id="1" parent="0" />
        <mxCell id="92afnAM9ZXsxOHyp0v-l-1" value="&lt;h1&gt;Lab work 2&lt;/h1&gt;" style="text;html=1;strokeColor=none;fillColor=none;spacing=5;spacingTop=-20;whiteSpace=wrap;overflow=hidden;rounded=0;" vertex="1" parent="1">
          <mxGeometry x="569" y="70" width="140" height="50" as="geometry" />
        </mxCell>
        <mxCell id="92afnAM9ZXsxOHyp0v-l-2" value="" style="endArrow=none;html=1;rounded=0;strokeColor=#858585;jumpSize=6;strokeWidth=4;" edge="1" parent="1">
          <mxGeometry width="50" height="50" relative="1" as="geometry">
            <mxPoint x="440" y="120" as="sourcePoint" />
            <mxPoint x="840" y="120" as="targetPoint" />
          </mxGeometry>
        </mxCell>
        <mxCell id="92afnAM9ZXsxOHyp0v-l-34" value="" style="edgeStyle=orthogonalEdgeStyle;rounded=1;jumpSize=6;orthogonalLoop=1;jettySize=auto;html=1;strokeColor=#858585;strokeWidth=2;fontSize=14;endArrow=classicThin;endFill=1;entryX=0;entryY=0.5;entryDx=0;entryDy=0;exitX=1;exitY=0.5;exitDx=0;exitDy=0;" edge="1" parent="1" source="92afnAM9ZXsxOHyp0v-l-25" target="92afnAM9ZXsxOHyp0v-l-32">
          <mxGeometry relative="1" as="geometry">
            <mxPoint x="420" y="715" as="targetPoint" />
            <Array as="points" />
          </mxGeometry>
        </mxCell>
        <mxCell id="92afnAM9ZXsxOHyp0v-l-40" value="" style="edgeStyle=orthogonalEdgeStyle;jumpSize=6;orthogonalLoop=1;jettySize=auto;html=1;strokeColor=#858585;strokeWidth=2;fontSize=14;endArrow=classicThin;endFill=1;entryX=0;entryY=0.5;entryDx=0;entryDy=0;exitX=1;exitY=0.5;exitDx=0;exitDy=0;" edge="1" parent="1" source="92afnAM9ZXsxOHyp0v-l-25" target="92afnAM9ZXsxOHyp0v-l-38">
          <mxGeometry relative="1" as="geometry" />
        </mxCell>
        <mxCell id="92afnAM9ZXsxOHyp0v-l-47" value="" style="edgeStyle=orthogonalEdgeStyle;jumpSize=6;orthogonalLoop=1;jettySize=auto;html=1;strokeColor=#858585;strokeWidth=2;fontSize=14;endArrow=classicThin;endFill=1;entryX=0;entryY=0.5;entryDx=0;entryDy=0;exitX=1;exitY=0.5;exitDx=0;exitDy=0;" edge="1" parent="1" source="92afnAM9ZXsxOHyp0v-l-25" target="92afnAM9ZXsxOHyp0v-l-45">
          <mxGeometry relative="1" as="geometry" />
        </mxCell>
        <mxCell id="92afnAM9ZXsxOHyp0v-l-51" value="" style="edgeStyle=orthogonalEdgeStyle;jumpSize=6;orthogonalLoop=1;jettySize=auto;html=1;strokeColor=#858585;strokeWidth=2;fontSize=14;endArrow=classicThin;endFill=1;" edge="1" parent="1" source="92afnAM9ZXsxOHyp0v-l-24" target="92afnAM9ZXsxOHyp0v-l-48">
          <mxGeometry relative="1" as="geometry" />
        </mxCell>
        <mxCell id="92afnAM9ZXsxOHyp0v-l-55" value="" style="edgeStyle=orthogonalEdgeStyle;jumpSize=6;orthogonalLoop=1;jettySize=auto;html=1;strokeColor=#858585;strokeWidth=2;fontSize=14;endArrow=classicThin;endFill=1;entryX=0;entryY=0.5;entryDx=0;entryDy=0;exitX=1;exitY=0.5;exitDx=0;exitDy=0;" edge="1" parent="1" source="92afnAM9ZXsxOHyp0v-l-25" target="92afnAM9ZXsxOHyp0v-l-53">
          <mxGeometry relative="1" as="geometry" />
        </mxCell>
        <mxCell id="92afnAM9ZXsxOHyp0v-l-65" value="" style="edgeStyle=orthogonalEdgeStyle;jumpSize=6;orthogonalLoop=1;jettySize=auto;html=1;strokeColor=#858585;strokeWidth=2;fontSize=14;endArrow=classicThin;endFill=1;entryX=0;entryY=0.5;entryDx=0;entryDy=0;exitX=1;exitY=0.5;exitDx=0;exitDy=0;" edge="1" parent="1" source="92afnAM9ZXsxOHyp0v-l-25" target="92afnAM9ZXsxOHyp0v-l-63">
          <mxGeometry relative="1" as="geometry" />
        </mxCell>
        <mxCell id="92afnAM9ZXsxOHyp0v-l-108" value="use" style="edgeLabel;html=1;align=center;verticalAlign=middle;resizable=0;points=[];fontSize=14;fontColor=#000000;labelBackgroundColor=none;" vertex="1" connectable="0" parent="92afnAM9ZXsxOHyp0v-l-65">
          <mxGeometry x="-0.9476" relative="1" as="geometry">
            <mxPoint x="2" y="-8" as="offset" />
          </mxGeometry>
        </mxCell>
        <mxCell id="92afnAM9ZXsxOHyp0v-l-24" value="Lab2" style="swimlane;fontStyle=0;childLayout=stackLayout;horizontal=1;startSize=30;horizontalStack=0;resizeParent=1;resizeParentMax=0;resizeLast=0;collapsible=1;marginBottom=0;fontSize=14;" vertex="1" parent="1">
          <mxGeometry x="110" y="670" width="140" height="90" as="geometry" />
        </mxCell>
        <mxCell id="92afnAM9ZXsxOHyp0v-l-25" value="   " style="text;align=left;verticalAlign=middle;spacingLeft=4;spacingRight=4;overflow=hidden;points=[[0,0.5],[1,0.5]];portConstraint=eastwest;rotatable=0;fontSize=14;labelBorderColor=none;strokeColor=default;" vertex="1" parent="92afnAM9ZXsxOHyp0v-l-24">
          <mxGeometry y="30" width="140" height="30" as="geometry" />
        </mxCell>
        <mxCell id="92afnAM9ZXsxOHyp0v-l-26" value="+main()" style="text;strokeColor=none;fillColor=none;align=left;verticalAlign=middle;spacingLeft=4;spacingRight=4;overflow=hidden;points=[[0,0.5],[1,0.5]];portConstraint=eastwest;rotatable=0;fontSize=14;" vertex="1" parent="92afnAM9ZXsxOHyp0v-l-24">
          <mxGeometry y="60" width="140" height="30" as="geometry" />
        </mxCell>
        <mxCell id="92afnAM9ZXsxOHyp0v-l-112" value="" style="edgeStyle=orthogonalEdgeStyle;jumpSize=6;orthogonalLoop=1;jettySize=auto;html=1;strokeColor=#858585;strokeWidth=2;fontSize=14;fontColor=#000000;endArrow=classicThin;endFill=1;entryX=0;entryY=0.5;entryDx=0;entryDy=0;exitX=1;exitY=0.5;exitDx=0;exitDy=0;" edge="1" parent="1" source="92afnAM9ZXsxOHyp0v-l-32" target="92afnAM9ZXsxOHyp0v-l-110">
          <mxGeometry relative="1" as="geometry">
            <mxPoint x="620" y="385" as="targetPoint" />
            <Array as="points">
              <mxPoint x="630" y="385" />
              <mxPoint x="630" y="315" />
            </Array>
          </mxGeometry>
        </mxCell>
        <mxCell id="92afnAM9ZXsxOHyp0v-l-116" value="" style="edgeStyle=orthogonalEdgeStyle;jumpSize=6;orthogonalLoop=1;jettySize=auto;html=1;strokeColor=#858585;strokeWidth=2;fontSize=14;fontColor=#000000;endArrow=classicThin;endFill=1;entryX=0.5;entryY=0;entryDx=0;entryDy=0;exitX=1;exitY=0.5;exitDx=0;exitDy=0;" edge="1" parent="1" source="92afnAM9ZXsxOHyp0v-l-32" target="92afnAM9ZXsxOHyp0v-l-113">
          <mxGeometry relative="1" as="geometry">
            <mxPoint x="650" y="385" as="targetPoint" />
            <Array as="points">
              <mxPoint x="630" y="385" />
              <mxPoint x="630" y="250" />
              <mxPoint x="935" y="250" />
            </Array>
          </mxGeometry>
        </mxCell>
        <mxCell id="92afnAM9ZXsxOHyp0v-l-135" value="" style="edgeStyle=orthogonalEdgeStyle;jumpSize=6;orthogonalLoop=1;jettySize=auto;html=1;strokeColor=#858585;strokeWidth=2;fontSize=14;fontColor=#000000;endArrow=classicThin;endFill=1;" edge="1" parent="1" source="92afnAM9ZXsxOHyp0v-l-31" target="92afnAM9ZXsxOHyp0v-l-132">
          <mxGeometry relative="1" as="geometry">
            <Array as="points">
              <mxPoint x="630" y="385" />
              <mxPoint x="630" y="480" />
            </Array>
          </mxGeometry>
        </mxCell>
        <mxCell id="92afnAM9ZXsxOHyp0v-l-145" value="" style="edgeStyle=orthogonalEdgeStyle;jumpSize=6;orthogonalLoop=1;jettySize=auto;html=1;strokeColor=#858585;strokeWidth=2;fontSize=14;fontColor=#000000;endArrow=classicThin;endFill=1;" edge="1" parent="1" source="92afnAM9ZXsxOHyp0v-l-31" target="92afnAM9ZXsxOHyp0v-l-142">
          <mxGeometry relative="1" as="geometry">
            <Array as="points">
              <mxPoint x="630" y="385" />
              <mxPoint x="630" y="410" />
              <mxPoint x="935" y="410" />
            </Array>
          </mxGeometry>
        </mxCell>
        <mxCell id="92afnAM9ZXsxOHyp0v-l-247" value="use" style="edgeLabel;html=1;align=center;verticalAlign=middle;resizable=0;points=[];fontSize=14;fontColor=#000000;labelBackgroundColor=none;" vertex="1" connectable="0" parent="92afnAM9ZXsxOHyp0v-l-145">
          <mxGeometry x="-0.9505" y="1" relative="1" as="geometry">
            <mxPoint x="1" y="-7" as="offset" />
          </mxGeometry>
        </mxCell>
        <mxCell id="92afnAM9ZXsxOHyp0v-l-31" value="Farfetchd" style="swimlane;fontStyle=0;childLayout=stackLayout;horizontal=1;startSize=30;horizontalStack=0;resizeParent=1;resizeParentMax=0;resizeLast=0;collapsible=1;marginBottom=0;fontSize=14;fontColor=#000000;" vertex="1" parent="1">
          <mxGeometry x="350" y="340" width="140" height="90" as="geometry" />
        </mxCell>
        <mxCell id="92afnAM9ZXsxOHyp0v-l-32" value="   " style="text;align=left;verticalAlign=middle;spacingLeft=4;spacingRight=4;overflow=hidden;points=[[0,0.5],[1,0.5]];portConstraint=eastwest;rotatable=0;fontSize=14;labelBorderColor=none;strokeColor=default;" vertex="1" parent="92afnAM9ZXsxOHyp0v-l-31">
          <mxGeometry y="30" width="140" height="30" as="geometry" />
        </mxCell>
        <mxCell id="92afnAM9ZXsxOHyp0v-l-33" value="+Farfetchd()" style="text;strokeColor=none;fillColor=none;align=left;verticalAlign=middle;spacingLeft=4;spacingRight=4;overflow=hidden;points=[[0,0.5],[1,0.5]];portConstraint=eastwest;rotatable=0;fontSize=14;" vertex="1" parent="92afnAM9ZXsxOHyp0v-l-31">
          <mxGeometry y="60" width="140" height="30" as="geometry" />
        </mxCell>
        <mxCell id="92afnAM9ZXsxOHyp0v-l-149" value="" style="edgeStyle=orthogonalEdgeStyle;jumpSize=6;orthogonalLoop=1;jettySize=auto;html=1;strokeColor=#858585;strokeWidth=2;fontSize=14;fontColor=#000000;endArrow=classicThin;endFill=1;exitX=1;exitY=0.5;exitDx=0;exitDy=0;entryX=0;entryY=0.5;entryDx=0;entryDy=0;" edge="1" parent="1" source="92afnAM9ZXsxOHyp0v-l-38" target="92afnAM9ZXsxOHyp0v-l-217">
          <mxGeometry relative="1" as="geometry">
            <Array as="points">
              <mxPoint x="640" y="515" />
              <mxPoint x="640" y="640" />
            </Array>
          </mxGeometry>
        </mxCell>
        <mxCell id="92afnAM9ZXsxOHyp0v-l-153" value="" style="edgeStyle=orthogonalEdgeStyle;jumpSize=6;orthogonalLoop=1;jettySize=auto;html=1;strokeColor=#858585;strokeWidth=2;fontSize=14;fontColor=#000000;endArrow=classicThin;endFill=1;exitX=1;exitY=0.5;exitDx=0;exitDy=0;" edge="1" parent="1" source="92afnAM9ZXsxOHyp0v-l-38" target="92afnAM9ZXsxOHyp0v-l-150">
          <mxGeometry relative="1" as="geometry">
            <mxPoint x="510" y="520" as="sourcePoint" />
            <Array as="points">
              <mxPoint x="640" y="515" />
              <mxPoint x="640" y="560" />
              <mxPoint x="930" y="560" />
            </Array>
          </mxGeometry>
        </mxCell>
        <mxCell id="92afnAM9ZXsxOHyp0v-l-157" value="" style="edgeStyle=orthogonalEdgeStyle;jumpSize=6;orthogonalLoop=1;jettySize=auto;html=1;strokeColor=#858585;strokeWidth=2;fontSize=14;fontColor=#000000;endArrow=classicThin;endFill=1;entryX=0;entryY=0.5;entryDx=0;entryDy=0;" edge="1" parent="1" source="92afnAM9ZXsxOHyp0v-l-37" target="92afnAM9ZXsxOHyp0v-l-155">
          <mxGeometry relative="1" as="geometry">
            <Array as="points">
              <mxPoint x="640" y="515" />
              <mxPoint x="640" y="790" />
            </Array>
          </mxGeometry>
        </mxCell>
        <mxCell id="92afnAM9ZXsxOHyp0v-l-248" value="use" style="edgeLabel;html=1;align=center;verticalAlign=middle;resizable=0;points=[];fontSize=14;fontColor=#000000;labelBackgroundColor=none;" vertex="1" connectable="0" parent="92afnAM9ZXsxOHyp0v-l-157">
          <mxGeometry x="-0.9297" y="1" relative="1" as="geometry">
            <mxPoint x="-3" y="-7" as="offset" />
          </mxGeometry>
        </mxCell>
        <mxCell id="92afnAM9ZXsxOHyp0v-l-37" value="Meowth" style="swimlane;fontStyle=0;childLayout=stackLayout;horizontal=1;startSize=30;horizontalStack=0;resizeParent=1;resizeParentMax=0;resizeLast=0;collapsible=1;marginBottom=0;fontSize=14;" vertex="1" parent="1">
          <mxGeometry x="350" y="470" width="140" height="90" as="geometry" />
        </mxCell>
        <mxCell id="92afnAM9ZXsxOHyp0v-l-38" value="   " style="text;align=left;verticalAlign=middle;spacingLeft=4;spacingRight=4;overflow=hidden;points=[[0,0.5],[1,0.5]];portConstraint=eastwest;rotatable=0;fontSize=14;labelBorderColor=none;strokeColor=default;" vertex="1" parent="92afnAM9ZXsxOHyp0v-l-37">
          <mxGeometry y="30" width="140" height="30" as="geometry" />
        </mxCell>
        <mxCell id="92afnAM9ZXsxOHyp0v-l-39" value="+Meowth()" style="text;strokeColor=none;fillColor=none;align=left;verticalAlign=middle;spacingLeft=4;spacingRight=4;overflow=hidden;points=[[0,0.5],[1,0.5]];portConstraint=eastwest;rotatable=0;fontSize=14;" vertex="1" parent="92afnAM9ZXsxOHyp0v-l-37">
          <mxGeometry y="60" width="140" height="30" as="geometry" />
        </mxCell>
        <mxCell id="92afnAM9ZXsxOHyp0v-l-168" value="" style="edgeStyle=orthogonalEdgeStyle;jumpSize=6;orthogonalLoop=1;jettySize=auto;html=1;strokeColor=#858585;strokeWidth=2;fontSize=14;fontColor=#000000;endArrow=classicThin;endFill=1;" edge="1" parent="1" source="92afnAM9ZXsxOHyp0v-l-44" target="92afnAM9ZXsxOHyp0v-l-165">
          <mxGeometry relative="1" as="geometry">
            <Array as="points">
              <mxPoint x="610" y="645" />
              <mxPoint x="610" y="710" />
              <mxPoint x="935" y="710" />
            </Array>
          </mxGeometry>
        </mxCell>
        <mxCell id="92afnAM9ZXsxOHyp0v-l-44" value="Persian" style="swimlane;fontStyle=0;childLayout=stackLayout;horizontal=1;startSize=30;horizontalStack=0;resizeParent=1;resizeParentMax=0;resizeLast=0;collapsible=1;marginBottom=0;fontSize=14;" vertex="1" parent="1">
          <mxGeometry x="350" y="600" width="140" height="90" as="geometry" />
        </mxCell>
        <mxCell id="92afnAM9ZXsxOHyp0v-l-45" value="   " style="text;align=left;verticalAlign=middle;spacingLeft=4;spacingRight=4;overflow=hidden;points=[[0,0.5],[1,0.5]];portConstraint=eastwest;rotatable=0;fontSize=14;labelBorderColor=none;strokeColor=default;" vertex="1" parent="92afnAM9ZXsxOHyp0v-l-44">
          <mxGeometry y="30" width="140" height="30" as="geometry" />
        </mxCell>
        <mxCell id="92afnAM9ZXsxOHyp0v-l-46" value="+Persian()" style="text;strokeColor=none;fillColor=none;align=left;verticalAlign=middle;spacingLeft=4;spacingRight=4;overflow=hidden;points=[[0,0.5],[1,0.5]];portConstraint=eastwest;rotatable=0;fontSize=14;" vertex="1" parent="92afnAM9ZXsxOHyp0v-l-44">
          <mxGeometry y="60" width="140" height="30" as="geometry" />
        </mxCell>
        <mxCell id="92afnAM9ZXsxOHyp0v-l-172" value="" style="edgeStyle=orthogonalEdgeStyle;jumpSize=6;orthogonalLoop=1;jettySize=auto;html=1;strokeColor=#858585;strokeWidth=2;fontSize=14;fontColor=#000000;endArrow=classicThin;endFill=1;entryX=0;entryY=0.5;entryDx=0;entryDy=0;" edge="1" parent="1" source="92afnAM9ZXsxOHyp0v-l-48" target="92afnAM9ZXsxOHyp0v-l-232">
          <mxGeometry relative="1" as="geometry">
            <Array as="points">
              <mxPoint x="590" y="775" />
              <mxPoint x="590" y="940" />
            </Array>
          </mxGeometry>
        </mxCell>
        <mxCell id="92afnAM9ZXsxOHyp0v-l-176" value="" style="edgeStyle=orthogonalEdgeStyle;jumpSize=6;orthogonalLoop=1;jettySize=auto;html=1;strokeColor=#858585;strokeWidth=2;fontSize=14;fontColor=#000000;endArrow=classicThin;endFill=1;" edge="1" parent="1" source="92afnAM9ZXsxOHyp0v-l-48" target="92afnAM9ZXsxOHyp0v-l-173">
          <mxGeometry relative="1" as="geometry">
            <Array as="points">
              <mxPoint x="590" y="775" />
              <mxPoint x="590" y="860" />
              <mxPoint x="935" y="860" />
            </Array>
          </mxGeometry>
        </mxCell>
        <mxCell id="92afnAM9ZXsxOHyp0v-l-250" value="use" style="edgeLabel;html=1;align=center;verticalAlign=middle;resizable=0;points=[];fontSize=14;fontColor=#000000;labelBackgroundColor=none;" vertex="1" connectable="0" parent="92afnAM9ZXsxOHyp0v-l-176">
          <mxGeometry x="-0.9286" y="-1" relative="1" as="geometry">
            <mxPoint x="-6" y="-9" as="offset" />
          </mxGeometry>
        </mxCell>
        <mxCell id="92afnAM9ZXsxOHyp0v-l-48" value="Ralts" style="swimlane;fontStyle=0;childLayout=stackLayout;horizontal=1;startSize=30;horizontalStack=0;resizeParent=1;resizeParentMax=0;resizeLast=0;collapsible=1;marginBottom=0;fontSize=14;" vertex="1" parent="1">
          <mxGeometry x="350" y="730" width="140" height="90" as="geometry" />
        </mxCell>
        <mxCell id="92afnAM9ZXsxOHyp0v-l-49" value="   " style="text;align=left;verticalAlign=middle;spacingLeft=4;spacingRight=4;overflow=hidden;points=[[0,0.5],[1,0.5]];portConstraint=eastwest;rotatable=0;fontSize=14;labelBorderColor=none;strokeColor=default;" vertex="1" parent="92afnAM9ZXsxOHyp0v-l-48">
          <mxGeometry y="30" width="140" height="30" as="geometry" />
        </mxCell>
        <mxCell id="92afnAM9ZXsxOHyp0v-l-50" value="+Ralts()" style="text;strokeColor=none;fillColor=none;align=left;verticalAlign=middle;spacingLeft=4;spacingRight=4;overflow=hidden;points=[[0,0.5],[1,0.5]];portConstraint=eastwest;rotatable=0;fontSize=14;" vertex="1" parent="92afnAM9ZXsxOHyp0v-l-48">
          <mxGeometry y="60" width="140" height="30" as="geometry" />
        </mxCell>
        <mxCell id="92afnAM9ZXsxOHyp0v-l-180" value="" style="edgeStyle=orthogonalEdgeStyle;jumpSize=6;orthogonalLoop=1;jettySize=auto;html=1;strokeColor=#858585;strokeWidth=2;fontSize=14;fontColor=#000000;endArrow=classicThin;endFill=1;entryX=0.5;entryY=0;entryDx=0;entryDy=0;" edge="1" parent="1" source="92afnAM9ZXsxOHyp0v-l-52" target="92afnAM9ZXsxOHyp0v-l-177">
          <mxGeometry relative="1" as="geometry">
            <mxPoint x="610" y="905" as="targetPoint" />
            <Array as="points">
              <mxPoint x="570" y="905" />
              <mxPoint x="570" y="1000" />
              <mxPoint x="745" y="1000" />
            </Array>
          </mxGeometry>
        </mxCell>
        <mxCell id="92afnAM9ZXsxOHyp0v-l-52" value="Kirlia" style="swimlane;fontStyle=0;childLayout=stackLayout;horizontal=1;startSize=30;horizontalStack=0;resizeParent=1;resizeParentMax=0;resizeLast=0;collapsible=1;marginBottom=0;fontSize=14;" vertex="1" parent="1">
          <mxGeometry x="350" y="860" width="140" height="90" as="geometry" />
        </mxCell>
        <mxCell id="92afnAM9ZXsxOHyp0v-l-53" value="   " style="text;align=left;verticalAlign=middle;spacingLeft=4;spacingRight=4;overflow=hidden;points=[[0,0.5],[1,0.5]];portConstraint=eastwest;rotatable=0;fontSize=14;labelBorderColor=none;strokeColor=default;" vertex="1" parent="92afnAM9ZXsxOHyp0v-l-52">
          <mxGeometry y="30" width="140" height="30" as="geometry" />
        </mxCell>
        <mxCell id="92afnAM9ZXsxOHyp0v-l-54" value="+Kirlia()" style="text;strokeColor=none;fillColor=none;align=left;verticalAlign=middle;spacingLeft=4;spacingRight=4;overflow=hidden;points=[[0,0.5],[1,0.5]];portConstraint=eastwest;rotatable=0;fontSize=14;" vertex="1" parent="92afnAM9ZXsxOHyp0v-l-52">
          <mxGeometry y="60" width="140" height="30" as="geometry" />
        </mxCell>
        <mxCell id="92afnAM9ZXsxOHyp0v-l-187" value="" style="edgeStyle=orthogonalEdgeStyle;jumpSize=6;orthogonalLoop=1;jettySize=auto;html=1;strokeColor=#858585;strokeWidth=2;fontSize=14;fontColor=#000000;endArrow=classicThin;endFill=1;entryX=0;entryY=0.5;entryDx=0;entryDy=0;" edge="1" parent="1" source="92afnAM9ZXsxOHyp0v-l-62" target="92afnAM9ZXsxOHyp0v-l-197">
          <mxGeometry relative="1" as="geometry">
            <Array as="points">
              <mxPoint x="630" y="1035" />
              <mxPoint x="630" y="1150" />
              <mxPoint x="840" y="1150" />
              <mxPoint x="840" y="1090" />
            </Array>
          </mxGeometry>
        </mxCell>
        <mxCell id="92afnAM9ZXsxOHyp0v-l-62" value="Gardevoir" style="swimlane;fontStyle=0;childLayout=stackLayout;horizontal=1;startSize=30;horizontalStack=0;resizeParent=1;resizeParentMax=0;resizeLast=0;collapsible=1;marginBottom=0;fontSize=14;" vertex="1" parent="1">
          <mxGeometry x="350" y="990" width="140" height="90" as="geometry" />
        </mxCell>
        <mxCell id="92afnAM9ZXsxOHyp0v-l-63" value="   " style="text;align=left;verticalAlign=middle;spacingLeft=4;spacingRight=4;overflow=hidden;points=[[0,0.5],[1,0.5]];portConstraint=eastwest;rotatable=0;fontSize=14;labelBorderColor=none;strokeColor=default;" vertex="1" parent="92afnAM9ZXsxOHyp0v-l-62">
          <mxGeometry y="30" width="140" height="30" as="geometry" />
        </mxCell>
        <mxCell id="92afnAM9ZXsxOHyp0v-l-64" value="+Gardevoir()" style="text;strokeColor=none;fillColor=none;align=left;verticalAlign=middle;spacingLeft=4;spacingRight=4;overflow=hidden;points=[[0,0.5],[1,0.5]];portConstraint=eastwest;rotatable=0;fontSize=14;" vertex="1" parent="92afnAM9ZXsxOHyp0v-l-62">
          <mxGeometry y="60" width="140" height="30" as="geometry" />
        </mxCell>
        <mxCell id="92afnAM9ZXsxOHyp0v-l-107" value="Pokemons" style="swimlane;labelBorderColor=none;strokeColor=#0000FF;fontSize=14;fontColor=#000000;" vertex="1" parent="1">
          <mxGeometry x="320" y="270" width="200" height="840" as="geometry" />
        </mxCell>
        <mxCell id="92afnAM9ZXsxOHyp0v-l-109" value="BraveBird" style="swimlane;fontStyle=0;childLayout=stackLayout;horizontal=1;startSize=30;horizontalStack=0;resizeParent=1;resizeParentMax=0;resizeLast=0;collapsible=1;marginBottom=0;fontSize=14;fontColor=#000000;" vertex="1" parent="1">
          <mxGeometry x="670" y="270" width="150" height="120" as="geometry" />
        </mxCell>
        <mxCell id="92afnAM9ZXsxOHyp0v-l-110" value="   " style="text;align=left;verticalAlign=middle;spacingLeft=4;spacingRight=4;overflow=hidden;points=[[0,0.5],[1,0.5]];portConstraint=eastwest;rotatable=0;fontSize=14;labelBorderColor=none;strokeColor=default;" vertex="1" parent="92afnAM9ZXsxOHyp0v-l-109">
          <mxGeometry y="30" width="150" height="30" as="geometry" />
        </mxCell>
        <mxCell id="92afnAM9ZXsxOHyp0v-l-111" value="+BraveBird()" style="text;strokeColor=none;fillColor=none;align=left;verticalAlign=middle;spacingLeft=4;spacingRight=4;overflow=hidden;points=[[0,0.5],[1,0.5]];portConstraint=eastwest;rotatable=0;fontSize=14;" vertex="1" parent="92afnAM9ZXsxOHyp0v-l-109">
          <mxGeometry y="60" width="150" height="20" as="geometry" />
        </mxCell>
        <mxCell id="92afnAM9ZXsxOHyp0v-l-131" value="#applyOppDamage()" style="text;strokeColor=none;fillColor=none;align=left;verticalAlign=middle;spacingLeft=4;spacingRight=4;overflow=hidden;points=[[0,0.5],[1,0.5]];portConstraint=eastwest;rotatable=0;fontSize=14;" vertex="1" parent="92afnAM9ZXsxOHyp0v-l-109">
          <mxGeometry y="80" width="150" height="20" as="geometry" />
        </mxCell>
        <mxCell id="92afnAM9ZXsxOHyp0v-l-119" value="#describe()" style="text;strokeColor=none;fillColor=none;align=left;verticalAlign=middle;spacingLeft=4;spacingRight=4;overflow=hidden;points=[[0,0.5],[1,0.5]];portConstraint=eastwest;rotatable=0;fontSize=14;" vertex="1" parent="92afnAM9ZXsxOHyp0v-l-109">
          <mxGeometry y="100" width="150" height="20" as="geometry" />
        </mxCell>
        <mxCell id="92afnAM9ZXsxOHyp0v-l-113" value="Facade" style="swimlane;fontStyle=0;childLayout=stackLayout;horizontal=1;startSize=30;horizontalStack=0;resizeParent=1;resizeParentMax=0;resizeLast=0;collapsible=1;marginBottom=0;fontSize=14;fontColor=#000000;" vertex="1" parent="1">
          <mxGeometry x="860" y="270" width="150" height="120" as="geometry" />
        </mxCell>
        <mxCell id="92afnAM9ZXsxOHyp0v-l-114" value="   " style="text;align=left;verticalAlign=middle;spacingLeft=4;spacingRight=4;overflow=hidden;points=[[0,0.5],[1,0.5]];portConstraint=eastwest;rotatable=0;fontSize=14;labelBorderColor=none;strokeColor=default;" vertex="1" parent="92afnAM9ZXsxOHyp0v-l-113">
          <mxGeometry y="30" width="150" height="30" as="geometry" />
        </mxCell>
        <mxCell id="92afnAM9ZXsxOHyp0v-l-115" value="+Facade()" style="text;strokeColor=none;fillColor=none;align=left;verticalAlign=middle;spacingLeft=4;spacingRight=4;overflow=hidden;points=[[0,0.5],[1,0.5]];portConstraint=eastwest;rotatable=0;fontSize=14;" vertex="1" parent="92afnAM9ZXsxOHyp0v-l-113">
          <mxGeometry y="60" width="150" height="20" as="geometry" />
        </mxCell>
        <mxCell id="92afnAM9ZXsxOHyp0v-l-128" value="#applyOppDamage()" style="text;strokeColor=none;fillColor=none;align=left;verticalAlign=middle;spacingLeft=4;spacingRight=4;overflow=hidden;points=[[0,0.5],[1,0.5]];portConstraint=eastwest;rotatable=0;fontSize=14;" vertex="1" parent="92afnAM9ZXsxOHyp0v-l-113">
          <mxGeometry y="80" width="150" height="20" as="geometry" />
        </mxCell>
        <mxCell id="92afnAM9ZXsxOHyp0v-l-123" value="#describe()" style="text;strokeColor=none;fillColor=none;align=left;verticalAlign=middle;spacingLeft=4;spacingRight=4;overflow=hidden;points=[[0,0.5],[1,0.5]];portConstraint=eastwest;rotatable=0;fontSize=14;" vertex="1" parent="92afnAM9ZXsxOHyp0v-l-113">
          <mxGeometry y="100" width="150" height="20" as="geometry" />
        </mxCell>
        <mxCell id="92afnAM9ZXsxOHyp0v-l-132" value="LeafBlade" style="swimlane;fontStyle=0;childLayout=stackLayout;horizontal=1;startSize=30;horizontalStack=0;resizeParent=1;resizeParentMax=0;resizeLast=0;collapsible=1;marginBottom=0;fontSize=14;fontColor=#000000;" vertex="1" parent="1">
          <mxGeometry x="670" y="420" width="150" height="120" as="geometry" />
        </mxCell>
        <mxCell id="92afnAM9ZXsxOHyp0v-l-133" value="   " style="text;align=left;verticalAlign=middle;spacingLeft=4;spacingRight=4;overflow=hidden;points=[[0,0.5],[1,0.5]];portConstraint=eastwest;rotatable=0;fontSize=14;labelBorderColor=none;strokeColor=default;" vertex="1" parent="92afnAM9ZXsxOHyp0v-l-132">
          <mxGeometry y="30" width="150" height="30" as="geometry" />
        </mxCell>
        <mxCell id="92afnAM9ZXsxOHyp0v-l-220" value="+LeafBlade()" style="text;align=left;verticalAlign=middle;spacingLeft=4;spacingRight=4;overflow=hidden;points=[[0,0.5],[1,0.5]];portConstraint=eastwest;rotatable=0;fontSize=14;labelBorderColor=none;strokeColor=none;" vertex="1" parent="92afnAM9ZXsxOHyp0v-l-132">
          <mxGeometry y="60" width="150" height="20" as="geometry" />
        </mxCell>
        <mxCell id="92afnAM9ZXsxOHyp0v-l-227" value="#calcCriticalHit()" style="text;align=left;verticalAlign=middle;spacingLeft=4;spacingRight=4;overflow=hidden;points=[[0,0.5],[1,0.5]];portConstraint=eastwest;rotatable=0;fontSize=14;labelBorderColor=none;strokeColor=none;" vertex="1" parent="92afnAM9ZXsxOHyp0v-l-132">
          <mxGeometry y="80" width="150" height="20" as="geometry" />
        </mxCell>
        <mxCell id="92afnAM9ZXsxOHyp0v-l-191" value="#describe()" style="text;align=left;verticalAlign=middle;spacingLeft=4;spacingRight=4;overflow=hidden;points=[[0,0.5],[1,0.5]];portConstraint=eastwest;rotatable=0;fontSize=14;labelBorderColor=none;strokeColor=none;" vertex="1" parent="92afnAM9ZXsxOHyp0v-l-132">
          <mxGeometry y="100" width="150" height="20" as="geometry" />
        </mxCell>
        <mxCell id="92afnAM9ZXsxOHyp0v-l-142" value="Peck" style="swimlane;fontStyle=0;childLayout=stackLayout;horizontal=1;startSize=30;horizontalStack=0;resizeParent=1;resizeParentMax=0;resizeLast=0;collapsible=1;marginBottom=0;fontSize=14;fontColor=#000000;" vertex="1" parent="1">
          <mxGeometry x="860" y="420" width="150" height="120" as="geometry" />
        </mxCell>
        <mxCell id="92afnAM9ZXsxOHyp0v-l-143" value="   " style="text;align=left;verticalAlign=middle;spacingLeft=4;spacingRight=4;overflow=hidden;points=[[0,0.5],[1,0.5]];portConstraint=eastwest;rotatable=0;fontSize=14;labelBorderColor=none;strokeColor=default;" vertex="1" parent="92afnAM9ZXsxOHyp0v-l-142">
          <mxGeometry y="30" width="150" height="30" as="geometry" />
        </mxCell>
        <mxCell id="92afnAM9ZXsxOHyp0v-l-192" value="+Peck()" style="text;align=left;verticalAlign=middle;spacingLeft=4;spacingRight=4;overflow=hidden;points=[[0,0.5],[1,0.5]];portConstraint=eastwest;rotatable=0;fontSize=14;labelBorderColor=none;strokeColor=none;" vertex="1" parent="92afnAM9ZXsxOHyp0v-l-142">
          <mxGeometry y="60" width="150" height="20" as="geometry" />
        </mxCell>
        <mxCell id="92afnAM9ZXsxOHyp0v-l-193" value="#applyOppDamage()" style="text;align=left;verticalAlign=middle;spacingLeft=4;spacingRight=4;overflow=hidden;points=[[0,0.5],[1,0.5]];portConstraint=eastwest;rotatable=0;fontSize=14;labelBorderColor=none;strokeColor=none;" vertex="1" parent="92afnAM9ZXsxOHyp0v-l-142">
          <mxGeometry y="80" width="150" height="20" as="geometry" />
        </mxCell>
        <mxCell id="92afnAM9ZXsxOHyp0v-l-144" value="#describe()" style="text;strokeColor=none;fillColor=none;align=left;verticalAlign=middle;spacingLeft=4;spacingRight=4;overflow=hidden;points=[[0,0.5],[1,0.5]];portConstraint=eastwest;rotatable=0;fontSize=14;" vertex="1" parent="92afnAM9ZXsxOHyp0v-l-142">
          <mxGeometry y="100" width="150" height="20" as="geometry" />
        </mxCell>
        <mxCell id="92afnAM9ZXsxOHyp0v-l-146" value="Growl" style="swimlane;fontStyle=0;childLayout=stackLayout;horizontal=1;startSize=30;horizontalStack=0;resizeParent=1;resizeParentMax=0;resizeLast=0;collapsible=1;marginBottom=0;fontSize=14;" vertex="1" parent="1">
          <mxGeometry x="670" y="570" width="150" height="120" as="geometry" />
        </mxCell>
        <mxCell id="92afnAM9ZXsxOHyp0v-l-230" value=" " style="text;align=left;verticalAlign=middle;spacingLeft=4;spacingRight=4;overflow=hidden;points=[[0,0.5],[1,0.5]];portConstraint=eastwest;rotatable=0;fontSize=14;labelBorderColor=none;strokeColor=default;" vertex="1" parent="92afnAM9ZXsxOHyp0v-l-146">
          <mxGeometry y="30" width="150" height="30" as="geometry" />
        </mxCell>
        <mxCell id="92afnAM9ZXsxOHyp0v-l-217" value="+Growl()" style="text;align=left;verticalAlign=middle;spacingLeft=4;spacingRight=4;overflow=hidden;points=[[0,0.5],[1,0.5]];portConstraint=eastwest;rotatable=0;fontSize=14;labelBorderColor=none;strokeColor=none;" vertex="1" parent="92afnAM9ZXsxOHyp0v-l-146">
          <mxGeometry y="60" width="150" height="20" as="geometry" />
        </mxCell>
        <mxCell id="92afnAM9ZXsxOHyp0v-l-147" value="#applyOppEffects()" style="text;align=left;verticalAlign=middle;spacingLeft=4;spacingRight=4;overflow=hidden;points=[[0,0.5],[1,0.5]];portConstraint=eastwest;rotatable=0;fontSize=14;labelBorderColor=none;strokeColor=none;" vertex="1" parent="92afnAM9ZXsxOHyp0v-l-146">
          <mxGeometry y="80" width="150" height="20" as="geometry" />
        </mxCell>
        <mxCell id="92afnAM9ZXsxOHyp0v-l-148" value="#describe()" style="text;strokeColor=none;fillColor=none;align=left;verticalAlign=middle;spacingLeft=4;spacingRight=4;overflow=hidden;points=[[0,0.5],[1,0.5]];portConstraint=eastwest;rotatable=0;fontSize=14;" vertex="1" parent="92afnAM9ZXsxOHyp0v-l-146">
          <mxGeometry y="100" width="150" height="20" as="geometry" />
        </mxCell>
        <mxCell id="92afnAM9ZXsxOHyp0v-l-150" value="FeintAttack" style="swimlane;fontStyle=0;childLayout=stackLayout;horizontal=1;startSize=30;horizontalStack=0;resizeParent=1;resizeParentMax=0;resizeLast=0;collapsible=1;marginBottom=0;fontSize=14;" vertex="1" parent="1">
          <mxGeometry x="860" y="570" width="150" height="120" as="geometry" />
        </mxCell>
        <mxCell id="92afnAM9ZXsxOHyp0v-l-151" value="   " style="text;align=left;verticalAlign=middle;spacingLeft=4;spacingRight=4;overflow=hidden;points=[[0,0.5],[1,0.5]];portConstraint=eastwest;rotatable=0;fontSize=14;labelBorderColor=none;strokeColor=default;" vertex="1" parent="92afnAM9ZXsxOHyp0v-l-150">
          <mxGeometry y="30" width="150" height="30" as="geometry" />
        </mxCell>
        <mxCell id="92afnAM9ZXsxOHyp0v-l-218" value="+FeintAttack()" style="text;align=left;verticalAlign=middle;spacingLeft=4;spacingRight=4;overflow=hidden;points=[[0,0.5],[1,0.5]];portConstraint=eastwest;rotatable=0;fontSize=14;labelBorderColor=none;strokeColor=none;" vertex="1" parent="92afnAM9ZXsxOHyp0v-l-150">
          <mxGeometry y="60" width="150" height="20" as="geometry" />
        </mxCell>
        <mxCell id="92afnAM9ZXsxOHyp0v-l-215" value="#checkAccuracy()" style="text;align=left;verticalAlign=middle;spacingLeft=4;spacingRight=4;overflow=hidden;points=[[0,0.5],[1,0.5]];portConstraint=eastwest;rotatable=0;fontSize=14;labelBorderColor=none;strokeColor=none;" vertex="1" parent="92afnAM9ZXsxOHyp0v-l-150">
          <mxGeometry y="80" width="150" height="20" as="geometry" />
        </mxCell>
        <mxCell id="92afnAM9ZXsxOHyp0v-l-152" value="#describe()" style="text;strokeColor=none;fillColor=none;align=left;verticalAlign=middle;spacingLeft=4;spacingRight=4;overflow=hidden;points=[[0,0.5],[1,0.5]];portConstraint=eastwest;rotatable=0;fontSize=14;" vertex="1" parent="92afnAM9ZXsxOHyp0v-l-150">
          <mxGeometry y="100" width="150" height="20" as="geometry" />
        </mxCell>
        <mxCell id="92afnAM9ZXsxOHyp0v-l-154" value="Bite" style="swimlane;fontStyle=0;childLayout=stackLayout;horizontal=1;startSize=30;horizontalStack=0;resizeParent=1;resizeParentMax=0;resizeLast=0;collapsible=1;marginBottom=0;fontSize=14;" vertex="1" parent="1">
          <mxGeometry x="670" y="720" width="150" height="120" as="geometry" />
        </mxCell>
        <mxCell id="92afnAM9ZXsxOHyp0v-l-226" value="   " style="text;align=left;verticalAlign=middle;spacingLeft=4;spacingRight=4;overflow=hidden;points=[[0,0.5],[1,0.5]];portConstraint=eastwest;rotatable=0;fontSize=14;labelBorderColor=none;strokeColor=default;" vertex="1" parent="92afnAM9ZXsxOHyp0v-l-154">
          <mxGeometry y="30" width="150" height="30" as="geometry" />
        </mxCell>
        <mxCell id="92afnAM9ZXsxOHyp0v-l-155" value="+Bite()" style="text;align=left;verticalAlign=middle;spacingLeft=4;spacingRight=4;overflow=hidden;points=[[0,0.5],[1,0.5]];portConstraint=eastwest;rotatable=0;fontSize=14;labelBorderColor=none;strokeColor=none;" vertex="1" parent="92afnAM9ZXsxOHyp0v-l-154">
          <mxGeometry y="60" width="150" height="20" as="geometry" />
        </mxCell>
        <mxCell id="92afnAM9ZXsxOHyp0v-l-214" value="#applyOppEffects()" style="text;align=left;verticalAlign=middle;spacingLeft=4;spacingRight=4;overflow=hidden;points=[[0,0.5],[1,0.5]];portConstraint=eastwest;rotatable=0;fontSize=14;labelBorderColor=none;strokeColor=none;" vertex="1" parent="92afnAM9ZXsxOHyp0v-l-154">
          <mxGeometry y="80" width="150" height="20" as="geometry" />
        </mxCell>
        <mxCell id="92afnAM9ZXsxOHyp0v-l-156" value="#describe()" style="text;strokeColor=none;fillColor=none;align=left;verticalAlign=middle;spacingLeft=4;spacingRight=4;overflow=hidden;points=[[0,0.5],[1,0.5]];portConstraint=eastwest;rotatable=0;fontSize=14;" vertex="1" parent="92afnAM9ZXsxOHyp0v-l-154">
          <mxGeometry y="100" width="150" height="20" as="geometry" />
        </mxCell>
        <mxCell id="92afnAM9ZXsxOHyp0v-l-165" value="PowerGem" style="swimlane;fontStyle=0;childLayout=stackLayout;horizontal=1;startSize=30;horizontalStack=0;resizeParent=1;resizeParentMax=0;resizeLast=0;collapsible=1;marginBottom=0;fontSize=14;" vertex="1" parent="1">
          <mxGeometry x="860" y="720" width="150" height="120" as="geometry" />
        </mxCell>
        <mxCell id="92afnAM9ZXsxOHyp0v-l-166" value="   " style="text;align=left;verticalAlign=middle;spacingLeft=4;spacingRight=4;overflow=hidden;points=[[0,0.5],[1,0.5]];portConstraint=eastwest;rotatable=0;fontSize=14;labelBorderColor=none;strokeColor=default;" vertex="1" parent="92afnAM9ZXsxOHyp0v-l-165">
          <mxGeometry y="30" width="150" height="30" as="geometry" />
        </mxCell>
        <mxCell id="92afnAM9ZXsxOHyp0v-l-167" value="+PowerGem()" style="text;strokeColor=none;fillColor=none;align=left;verticalAlign=middle;spacingLeft=4;spacingRight=4;overflow=hidden;points=[[0,0.5],[1,0.5]];portConstraint=eastwest;rotatable=0;fontSize=14;" vertex="1" parent="92afnAM9ZXsxOHyp0v-l-165">
          <mxGeometry y="60" width="150" height="20" as="geometry" />
        </mxCell>
        <mxCell id="92afnAM9ZXsxOHyp0v-l-221" value="#applyOppDamage()" style="text;strokeColor=none;fillColor=none;align=left;verticalAlign=middle;spacingLeft=4;spacingRight=4;overflow=hidden;points=[[0,0.5],[1,0.5]];portConstraint=eastwest;rotatable=0;fontSize=14;" vertex="1" parent="92afnAM9ZXsxOHyp0v-l-165">
          <mxGeometry y="80" width="150" height="20" as="geometry" />
        </mxCell>
        <mxCell id="92afnAM9ZXsxOHyp0v-l-222" value="#describe()" style="text;strokeColor=none;fillColor=none;align=left;verticalAlign=middle;spacingLeft=4;spacingRight=4;overflow=hidden;points=[[0,0.5],[1,0.5]];portConstraint=eastwest;rotatable=0;fontSize=14;" vertex="1" parent="92afnAM9ZXsxOHyp0v-l-165">
          <mxGeometry y="100" width="150" height="20" as="geometry" />
        </mxCell>
        <mxCell id="92afnAM9ZXsxOHyp0v-l-169" value="Psychic" style="swimlane;fontStyle=0;childLayout=stackLayout;horizontal=1;startSize=30;horizontalStack=0;resizeParent=1;resizeParentMax=0;resizeLast=0;collapsible=1;marginBottom=0;fontSize=14;" vertex="1" parent="1">
          <mxGeometry x="670" y="870" width="150" height="120" as="geometry" />
        </mxCell>
        <mxCell id="92afnAM9ZXsxOHyp0v-l-212" value="   " style="text;align=left;verticalAlign=middle;spacingLeft=4;spacingRight=4;overflow=hidden;points=[[0,0.5],[1,0.5]];portConstraint=eastwest;rotatable=0;fontSize=14;labelBorderColor=none;strokeColor=default;" vertex="1" parent="92afnAM9ZXsxOHyp0v-l-169">
          <mxGeometry y="30" width="150" height="30" as="geometry" />
        </mxCell>
        <mxCell id="92afnAM9ZXsxOHyp0v-l-232" value="+Psychic()" style="text;align=left;verticalAlign=middle;spacingLeft=4;spacingRight=4;overflow=hidden;points=[[0,0.5],[1,0.5]];portConstraint=eastwest;rotatable=0;fontSize=14;labelBorderColor=none;strokeColor=none;" vertex="1" parent="92afnAM9ZXsxOHyp0v-l-169">
          <mxGeometry y="60" width="150" height="20" as="geometry" />
        </mxCell>
        <mxCell id="92afnAM9ZXsxOHyp0v-l-195" value="#applyOppEffects()" style="text;align=left;verticalAlign=middle;spacingLeft=4;spacingRight=4;overflow=hidden;points=[[0,0.5],[1,0.5]];portConstraint=eastwest;rotatable=0;fontSize=14;labelBorderColor=none;strokeColor=none;" vertex="1" parent="92afnAM9ZXsxOHyp0v-l-169">
          <mxGeometry y="80" width="150" height="20" as="geometry" />
        </mxCell>
        <mxCell id="92afnAM9ZXsxOHyp0v-l-241" value="#describe()" style="text;strokeColor=none;fillColor=none;align=left;verticalAlign=middle;spacingLeft=4;spacingRight=4;overflow=hidden;points=[[0,0.5],[1,0.5]];portConstraint=eastwest;rotatable=0;fontSize=14;" vertex="1" parent="92afnAM9ZXsxOHyp0v-l-169">
          <mxGeometry y="100" width="150" height="20" as="geometry" />
        </mxCell>
        <mxCell id="92afnAM9ZXsxOHyp0v-l-173" value="Confusion" style="swimlane;fontStyle=0;childLayout=stackLayout;horizontal=1;startSize=30;horizontalStack=0;resizeParent=1;resizeParentMax=0;resizeLast=0;collapsible=1;marginBottom=0;fontSize=14;" vertex="1" parent="1">
          <mxGeometry x="860" y="870" width="150" height="120" as="geometry" />
        </mxCell>
        <mxCell id="92afnAM9ZXsxOHyp0v-l-174" value="   " style="text;align=left;verticalAlign=middle;spacingLeft=4;spacingRight=4;overflow=hidden;points=[[0,0.5],[1,0.5]];portConstraint=eastwest;rotatable=0;fontSize=14;labelBorderColor=none;strokeColor=default;" vertex="1" parent="92afnAM9ZXsxOHyp0v-l-173">
          <mxGeometry y="30" width="150" height="30" as="geometry" />
        </mxCell>
        <mxCell id="92afnAM9ZXsxOHyp0v-l-213" value="+Confusion()" style="text;align=left;verticalAlign=middle;spacingLeft=4;spacingRight=4;overflow=hidden;points=[[0,0.5],[1,0.5]];portConstraint=eastwest;rotatable=0;fontSize=14;labelBorderColor=none;strokeColor=none;" vertex="1" parent="92afnAM9ZXsxOHyp0v-l-173">
          <mxGeometry y="60" width="150" height="20" as="geometry" />
        </mxCell>
        <mxCell id="92afnAM9ZXsxOHyp0v-l-196" value="#applyOppDamage()" style="text;align=left;verticalAlign=middle;spacingLeft=4;spacingRight=4;overflow=hidden;points=[[0,0.5],[1,0.5]];portConstraint=eastwest;rotatable=0;fontSize=14;labelBorderColor=none;strokeColor=none;" vertex="1" parent="92afnAM9ZXsxOHyp0v-l-173">
          <mxGeometry y="80" width="150" height="20" as="geometry" />
        </mxCell>
        <mxCell id="92afnAM9ZXsxOHyp0v-l-175" value="#describe()" style="text;strokeColor=none;fillColor=none;align=left;verticalAlign=middle;spacingLeft=4;spacingRight=4;overflow=hidden;points=[[0,0.5],[1,0.5]];portConstraint=eastwest;rotatable=0;fontSize=14;" vertex="1" parent="92afnAM9ZXsxOHyp0v-l-173">
          <mxGeometry y="100" width="150" height="20" as="geometry" />
        </mxCell>
        <mxCell id="92afnAM9ZXsxOHyp0v-l-177" value="Charm" style="swimlane;fontStyle=0;childLayout=stackLayout;horizontal=1;startSize=30;horizontalStack=0;resizeParent=1;resizeParentMax=0;resizeLast=0;collapsible=1;marginBottom=0;fontSize=14;" vertex="1" parent="1">
          <mxGeometry x="670" y="1020" width="150" height="120" as="geometry" />
        </mxCell>
        <mxCell id="92afnAM9ZXsxOHyp0v-l-178" value="   " style="text;align=left;verticalAlign=middle;spacingLeft=4;spacingRight=4;overflow=hidden;points=[[0,0.5],[1,0.5]];portConstraint=eastwest;rotatable=0;fontSize=14;labelBorderColor=none;strokeColor=default;" vertex="1" parent="92afnAM9ZXsxOHyp0v-l-177">
          <mxGeometry y="30" width="150" height="30" as="geometry" />
        </mxCell>
        <mxCell id="92afnAM9ZXsxOHyp0v-l-179" value="+Charm()" style="text;strokeColor=none;fillColor=none;align=left;verticalAlign=middle;spacingLeft=4;spacingRight=4;overflow=hidden;points=[[0,0.5],[1,0.5]];portConstraint=eastwest;rotatable=0;fontSize=14;" vertex="1" parent="92afnAM9ZXsxOHyp0v-l-177">
          <mxGeometry y="60" width="150" height="20" as="geometry" />
        </mxCell>
        <mxCell id="92afnAM9ZXsxOHyp0v-l-205" value="#applyOppEffects()" style="text;strokeColor=none;fillColor=none;align=left;verticalAlign=middle;spacingLeft=4;spacingRight=4;overflow=hidden;points=[[0,0.5],[1,0.5]];portConstraint=eastwest;rotatable=0;fontSize=14;" vertex="1" parent="92afnAM9ZXsxOHyp0v-l-177">
          <mxGeometry y="80" width="150" height="20" as="geometry" />
        </mxCell>
        <mxCell id="92afnAM9ZXsxOHyp0v-l-204" value="#describe()" style="text;strokeColor=none;fillColor=none;align=left;verticalAlign=middle;spacingLeft=4;spacingRight=4;overflow=hidden;points=[[0,0.5],[1,0.5]];portConstraint=eastwest;rotatable=0;fontSize=14;" vertex="1" parent="92afnAM9ZXsxOHyp0v-l-177">
          <mxGeometry y="100" width="150" height="20" as="geometry" />
        </mxCell>
        <mxCell id="92afnAM9ZXsxOHyp0v-l-184" value="DoubleTeam" style="swimlane;fontStyle=0;childLayout=stackLayout;horizontal=1;startSize=30;horizontalStack=0;resizeParent=1;resizeParentMax=0;resizeLast=0;collapsible=1;marginBottom=0;fontSize=14;" vertex="1" parent="1">
          <mxGeometry x="860" y="1020" width="150" height="120" as="geometry" />
        </mxCell>
        <mxCell id="92afnAM9ZXsxOHyp0v-l-185" value="   " style="text;align=left;verticalAlign=middle;spacingLeft=4;spacingRight=4;overflow=hidden;points=[[0,0.5],[1,0.5]];portConstraint=eastwest;rotatable=0;fontSize=14;labelBorderColor=none;strokeColor=default;" vertex="1" parent="92afnAM9ZXsxOHyp0v-l-184">
          <mxGeometry y="30" width="150" height="30" as="geometry" />
        </mxCell>
        <mxCell id="92afnAM9ZXsxOHyp0v-l-197" value="+DoubleTeam()" style="text;align=left;verticalAlign=middle;spacingLeft=4;spacingRight=4;overflow=hidden;points=[[0,0.5],[1,0.5]];portConstraint=eastwest;rotatable=0;fontSize=14;labelBorderColor=none;strokeColor=none;" vertex="1" parent="92afnAM9ZXsxOHyp0v-l-184">
          <mxGeometry y="60" width="150" height="20" as="geometry" />
        </mxCell>
        <mxCell id="92afnAM9ZXsxOHyp0v-l-207" value="#applySelfEffects()" style="text;align=left;verticalAlign=middle;spacingLeft=4;spacingRight=4;overflow=hidden;points=[[0,0.5],[1,0.5]];portConstraint=eastwest;rotatable=0;fontSize=14;labelBorderColor=none;strokeColor=none;" vertex="1" parent="92afnAM9ZXsxOHyp0v-l-184">
          <mxGeometry y="80" width="150" height="20" as="geometry" />
        </mxCell>
        <mxCell id="92afnAM9ZXsxOHyp0v-l-186" value="#describe()" style="text;strokeColor=none;fillColor=none;align=left;verticalAlign=middle;spacingLeft=4;spacingRight=4;overflow=hidden;points=[[0,0.5],[1,0.5]];portConstraint=eastwest;rotatable=0;fontSize=14;" vertex="1" parent="92afnAM9ZXsxOHyp0v-l-184">
          <mxGeometry y="100" width="150" height="20" as="geometry" />
        </mxCell>
        <mxCell id="92afnAM9ZXsxOHyp0v-l-235" value="" style="endArrow=classic;html=1;strokeColor=#858585;strokeWidth=2;fontSize=14;fontColor=#000000;jumpSize=6;exitX=1;exitY=0.5;exitDx=0;exitDy=0;entryX=0.487;entryY=1.017;entryDx=0;entryDy=0;edgeStyle=orthogonalEdgeStyle;entryPerimeter=0;" edge="1" parent="1" source="92afnAM9ZXsxOHyp0v-l-45" target="92afnAM9ZXsxOHyp0v-l-148">
          <mxGeometry width="50" height="50" relative="1" as="geometry">
            <mxPoint x="1190" y="710" as="sourcePoint" />
            <mxPoint x="1240" y="660" as="targetPoint" />
            <Array as="points">
              <mxPoint x="610" y="645" />
              <mxPoint x="610" y="710" />
              <mxPoint x="743" y="710" />
            </Array>
          </mxGeometry>
        </mxCell>
        <mxCell id="92afnAM9ZXsxOHyp0v-l-236" value="" style="endArrow=classic;html=1;strokeColor=#858585;strokeWidth=2;fontSize=14;fontColor=#000000;jumpSize=6;exitX=1;exitY=0.5;exitDx=0;exitDy=0;entryX=0;entryY=0.5;entryDx=0;entryDy=0;edgeStyle=orthogonalEdgeStyle;" edge="1" parent="1" source="92afnAM9ZXsxOHyp0v-l-45" target="92afnAM9ZXsxOHyp0v-l-155">
          <mxGeometry width="50" height="50" relative="1" as="geometry">
            <mxPoint x="990" y="710" as="sourcePoint" />
            <mxPoint x="1040" y="660" as="targetPoint" />
            <Array as="points">
              <mxPoint x="610" y="645" />
              <mxPoint x="610" y="790" />
            </Array>
          </mxGeometry>
        </mxCell>
        <mxCell id="92afnAM9ZXsxOHyp0v-l-237" value="" style="endArrow=classic;html=1;strokeColor=#858585;strokeWidth=2;fontSize=14;fontColor=#000000;jumpSize=6;exitX=1;exitY=0.5;exitDx=0;exitDy=0;entryX=0;entryY=0.5;entryDx=0;entryDy=0;edgeStyle=orthogonalEdgeStyle;" edge="1" parent="1" source="92afnAM9ZXsxOHyp0v-l-45" target="92afnAM9ZXsxOHyp0v-l-218">
          <mxGeometry width="50" height="50" relative="1" as="geometry">
            <mxPoint x="990" y="710" as="sourcePoint" />
            <mxPoint x="1040" y="660" as="targetPoint" />
            <Array as="points">
              <mxPoint x="610" y="645" />
              <mxPoint x="610" y="710" />
              <mxPoint x="840" y="710" />
              <mxPoint x="840" y="640" />
            </Array>
          </mxGeometry>
        </mxCell>
        <mxCell id="92afnAM9ZXsxOHyp0v-l-249" value="use" style="edgeLabel;html=1;align=center;verticalAlign=middle;resizable=0;points=[];fontSize=14;fontColor=#000000;labelBackgroundColor=none;" vertex="1" connectable="0" parent="92afnAM9ZXsxOHyp0v-l-237">
          <mxGeometry x="-0.9179" y="-1" relative="1" as="geometry">
            <mxPoint x="-8" y="-8" as="offset" />
          </mxGeometry>
        </mxCell>
        <mxCell id="92afnAM9ZXsxOHyp0v-l-238" value="" style="endArrow=classic;html=1;strokeColor=#858585;strokeWidth=2;fontSize=14;fontColor=#000000;jumpSize=6;exitX=1;exitY=0.5;exitDx=0;exitDy=0;entryX=0;entryY=0.5;entryDx=0;entryDy=0;edgeStyle=orthogonalEdgeStyle;" edge="1" parent="1" source="92afnAM9ZXsxOHyp0v-l-53" target="92afnAM9ZXsxOHyp0v-l-232">
          <mxGeometry width="50" height="50" relative="1" as="geometry">
            <mxPoint x="990" y="1130" as="sourcePoint" />
            <mxPoint x="1040" y="1080" as="targetPoint" />
            <Array as="points">
              <mxPoint x="570" y="905" />
              <mxPoint x="570" y="940" />
            </Array>
          </mxGeometry>
        </mxCell>
        <mxCell id="92afnAM9ZXsxOHyp0v-l-239" value="" style="endArrow=classic;html=1;strokeColor=#858585;strokeWidth=2;fontSize=14;fontColor=#000000;jumpSize=6;exitX=1;exitY=0.5;exitDx=0;exitDy=0;entryX=0;entryY=0.5;entryDx=0;entryDy=0;edgeStyle=orthogonalEdgeStyle;" edge="1" parent="1" source="92afnAM9ZXsxOHyp0v-l-53" target="92afnAM9ZXsxOHyp0v-l-213">
          <mxGeometry width="50" height="50" relative="1" as="geometry">
            <mxPoint x="990" y="1130" as="sourcePoint" />
            <mxPoint x="1040" y="1080" as="targetPoint" />
            <Array as="points">
              <mxPoint x="570" y="905" />
              <mxPoint x="570" y="1000" />
              <mxPoint x="840" y="1000" />
              <mxPoint x="840" y="940" />
            </Array>
          </mxGeometry>
        </mxCell>
        <mxCell id="92afnAM9ZXsxOHyp0v-l-251" value="use" style="edgeLabel;html=1;align=center;verticalAlign=middle;resizable=0;points=[];fontSize=14;fontColor=#000000;labelBackgroundColor=none;" vertex="1" connectable="0" parent="92afnAM9ZXsxOHyp0v-l-239">
          <mxGeometry x="-0.9169" y="2" relative="1" as="geometry">
            <mxPoint x="-9" y="-6" as="offset" />
          </mxGeometry>
        </mxCell>
        <mxCell id="92afnAM9ZXsxOHyp0v-l-240" value="" style="endArrow=classic;html=1;strokeColor=#858585;strokeWidth=2;fontSize=14;fontColor=#000000;jumpSize=6;exitX=1;exitY=0.5;exitDx=0;exitDy=0;entryX=0;entryY=0.5;entryDx=0;entryDy=0;edgeStyle=orthogonalEdgeStyle;" edge="1" parent="1" source="92afnAM9ZXsxOHyp0v-l-63" target="92afnAM9ZXsxOHyp0v-l-232">
          <mxGeometry width="50" height="50" relative="1" as="geometry">
            <mxPoint x="990" y="1130" as="sourcePoint" />
            <mxPoint x="1040" y="1080" as="targetPoint" />
            <Array as="points">
              <mxPoint x="610" y="1035" />
              <mxPoint x="610" y="940" />
            </Array>
          </mxGeometry>
        </mxCell>
        <mxCell id="92afnAM9ZXsxOHyp0v-l-243" value="" style="endArrow=classic;html=1;strokeColor=#858585;strokeWidth=2;fontSize=14;fontColor=#000000;jumpSize=6;exitX=1;exitY=0.5;exitDx=0;exitDy=0;entryX=0;entryY=0.5;entryDx=0;entryDy=0;edgeStyle=orthogonalEdgeStyle;" edge="1" parent="1" source="92afnAM9ZXsxOHyp0v-l-63" target="92afnAM9ZXsxOHyp0v-l-179">
          <mxGeometry width="50" height="50" relative="1" as="geometry">
            <mxPoint x="990" y="1130" as="sourcePoint" />
            <mxPoint x="1040" y="1080" as="targetPoint" />
            <Array as="points">
              <mxPoint x="630" y="1035" />
              <mxPoint x="630" y="1090" />
            </Array>
          </mxGeometry>
        </mxCell>
        <mxCell id="92afnAM9ZXsxOHyp0v-l-244" value="" style="endArrow=classic;html=1;strokeColor=#858585;strokeWidth=2;fontSize=14;fontColor=#000000;jumpSize=6;exitX=1;exitY=0.5;exitDx=0;exitDy=0;entryX=0.498;entryY=1.1;entryDx=0;entryDy=0;entryPerimeter=0;edgeStyle=orthogonalEdgeStyle;" edge="1" parent="1" source="92afnAM9ZXsxOHyp0v-l-63" target="92afnAM9ZXsxOHyp0v-l-175">
          <mxGeometry width="50" height="50" relative="1" as="geometry">
            <mxPoint x="990" y="1130" as="sourcePoint" />
            <mxPoint x="1040" y="1080" as="targetPoint" />
            <Array as="points">
              <mxPoint x="630" y="1035" />
              <mxPoint x="630" y="1150" />
              <mxPoint x="830" y="1150" />
              <mxPoint x="830" y="1010" />
              <mxPoint x="935" y="1010" />
            </Array>
          </mxGeometry>
        </mxCell>
        <mxCell id="92afnAM9ZXsxOHyp0v-l-252" value="use" style="edgeLabel;html=1;align=center;verticalAlign=middle;resizable=0;points=[];fontSize=14;fontColor=#000000;labelBackgroundColor=none;" vertex="1" connectable="0" parent="92afnAM9ZXsxOHyp0v-l-244">
          <mxGeometry x="-0.9382" relative="1" as="geometry">
            <mxPoint x="-9" y="-8" as="offset" />
          </mxGeometry>
        </mxCell>
        <mxCell id="92afnAM9ZXsxOHyp0v-l-246" value="Moves" style="swimlane;labelBorderColor=none;strokeColor=#0000FF;fontSize=14;fontColor=#000000;" vertex="1" parent="1">
          <mxGeometry x="550" y="190" width="510" height="990" as="geometry" />
        </mxCell>
      </root>
    </mxGraphModel>
  </diagram>
</mxfile>
